<svg width="21" height="21" viewBox="0 0 21 21" fill="none" xmlns="http://www.w3.org/2000/svg">
<path fill-rule="evenodd" clip-rule="evenodd" d="M16.7798 1.66669H8.43809C7.52143 1.66669 6.77976 2.41669 6.77976 3.33335H15.1131C16.0298 3.33335 16.7798 4.08335 16.7798 5.00002V15.8334L18.4464 16.6667V3.33335C18.4464 2.41669 17.6964 1.66669 16.7798 1.66669ZM13.4465 6.66669V17.475L9.93818 15.9667L9.27985 15.6834L8.62152 15.9667L5.11318 17.475V6.66669H13.4465ZM5.11314 5.00002H13.4465C14.3631 5.00002 15.1131 5.75002 15.1131 6.66669V20L9.27981 17.5L3.44647 20V6.66669C3.44647 5.75002 4.19647 5.00002 5.11314 5.00002Z" fill="#2F80ED"/>
</svg>
