<svg width="68" height="68" viewBox="0 0 68 68" fill="none" xmlns="http://www.w3.org/2000/svg">
<path d="M68 34C68 52.7777 52.7777 68 34 68C15.2223 68 0 52.7777 0 34C0 15.2223 15.2223 0 34 0C52.7777 0 68 15.2223 68 34Z" fill="#2F80ED"/>
<path fill-rule="evenodd" clip-rule="evenodd" d="M37.4427 18.3359C38.3618 18.9486 38.6101 20.1903 37.9974 21.1094L30.737 32H41C41.7376 32 42.4153 32.406 42.7634 33.0563C43.1114 33.7066 43.0732 34.4957 42.6641 35.1094L33.3308 49.1094C32.7181 50.0285 31.4763 50.2768 30.5573 49.6641C29.6382 49.0514 29.3899 47.8097 30.0026 46.8906L37.263 36H27C26.2624 36 25.5847 35.594 25.2367 34.9437C24.8886 34.2934 24.9268 33.5043 25.3359 32.8906L34.6692 18.8906C35.2819 17.9715 36.5237 17.7232 37.4427 18.3359Z" fill="white"/>
</svg>
