<svg width="60" height="60" viewBox="0 0 60 60" fill="none" xmlns="http://www.w3.org/2000/svg">
<path d="M60 30C60 46.5685 46.5685 60 30 60C13.4315 60 0 46.5685 0 30C0 13.4315 13.4315 0 30 0C46.5685 0 60 13.4315 60 30Z" fill="#F2F2F2"/>
<path fill-rule="evenodd" clip-rule="evenodd" d="M34.4442 21.1107H19.9998C19.3887 21.1107 18.8887 21.6107 18.8887 22.2218V37.7773L23.3331 33.3329H34.4442C35.0553 33.3329 35.5553 32.8329 35.5553 32.2218V22.2218C35.5553 21.6107 35.0553 21.1107 34.4442 21.1107ZM33.3331 23.3328V31.1106H22.4109L21.7553 31.7661L21.1109 32.4106V23.3328H33.3331ZM37.7776 25.5551H39.9998C40.6109 25.5551 41.1109 26.0551 41.1109 26.6662V43.3329L36.6664 38.8885H24.4442C23.8331 38.8885 23.3331 38.3885 23.3331 37.7773V35.5551H37.7776V25.5551Z" fill="#8885FF"/>
</svg>
