<svg width="34" height="34" viewBox="0 0 34 34" fill="none" xmlns="http://www.w3.org/2000/svg">
<path d="M34 17C34 26.3888 26.3888 34 17 34C7.61116 34 0 26.3888 0 17C0 7.61116 7.61116 0 17 0C26.3888 0 34 7.61116 34 17Z" fill="#E0E0E0"/>
<path fill-rule="evenodd" clip-rule="evenodd" d="M17 11C15.3425 11 14 12.3425 14 14C14 15.6575 15.3425 17 17 17C18.6575 17 20 15.6575 20 14C20 12.3425 18.6575 11 17 11ZM18.5 14C18.5 13.175 17.825 12.5 17 12.5C16.175 12.5 15.5 13.175 15.5 14C15.5 14.825 16.175 15.5 17 15.5C17.825 15.5 18.5 14.825 18.5 14ZM21.5 21.5C21.35 20.9675 19.025 20 17 20C14.9825 20 12.6725 20.96 12.5 21.5H21.5ZM11 21.5C11 19.505 14.9975 18.5 17 18.5C19.0025 18.5 23 19.505 23 21.5V23H11V21.5Z" fill="black" fill-opacity="0.54"/>
</svg>
