<svg width="20" height="20" viewBox="0 0 20 20" fill="none" xmlns="http://www.w3.org/2000/svg">
<g id="schedule_24px">
<path id="icon/action/schedule_24px" fill-rule="evenodd" clip-rule="evenodd" d="M9.99184 1.66667C5.39184 1.66667 1.66684 5.40001 1.66684 10C1.66684 14.6 5.39184 18.3333 9.99184 18.3333C14.6002 18.3333 18.3335 14.6 18.3335 10C18.3335 5.40001 14.6002 1.66667 9.99184 1.66667ZM10.0003 16.6667C6.317 16.6667 3.33367 13.6833 3.33367 10C3.33367 6.31667 6.317 3.33334 10.0003 3.33334C13.6837 3.33334 16.667 6.31667 16.667 10C16.667 13.6833 13.6837 16.6667 10.0003 16.6667ZM9.16684 5.83334H10.4168V10.2083L14.1668 12.4333L13.5418 13.4583L9.16684 10.8333V5.83334Z" fill="#4F4F4F"/>
</g>
</svg>
