<svg width="13" height="12" viewBox="0 0 13 12" fill="none" xmlns="http://www.w3.org/2000/svg">
<path fill-rule="evenodd" clip-rule="evenodd" d="M8.21155 7.54717H8.75358L12.1772 10.9777L11.1549 12L7.72442 8.57633V8.03431L7.53917 7.8422C6.75701 8.51458 5.74157 8.91938 4.63694 8.91938C2.17382 8.91938 0.177246 6.92281 0.177246 4.45969C0.177246 1.99657 2.17382 0 4.63694 0C7.10006 0 9.09663 1.99657 9.09663 4.45969C9.09663 5.56432 8.69183 6.57976 8.01944 7.36192L8.21155 7.54717ZM1.54945 4.4597C1.54945 6.16811 2.92853 7.54718 4.63693 7.54718C6.34534 7.54718 7.72441 6.16811 7.72441 4.4597C7.72441 2.7513 6.34534 1.37222 4.63693 1.37222C2.92853 1.37222 1.54945 2.7513 1.54945 4.4597Z" fill="#333333"/>
</svg>
