<svg width="68" height="68" viewBox="0 0 68 68" fill="none" xmlns="http://www.w3.org/2000/svg">
<path d="M68 34C68 52.7777 52.7777 68 34 68C15.2223 68 0 52.7777 0 34C0 15.2223 15.2223 0 34 0C52.7777 0 68 15.2223 68 34Z" fill="#F8B76B"/>
<path fill-rule="evenodd" clip-rule="evenodd" d="M24.1111 24.6662H44.1111C45.3334 24.6662 46.3334 25.6662 46.3334 26.8885V41.3329C46.3334 42.5551 45.3334 43.5551 44.1111 43.5551H24.1111C22.8889 43.5551 21.8889 42.5551 21.8889 41.3329V26.8885C21.8889 25.6662 22.8889 24.6662 24.1111 24.6662ZM24.1111 26.8885V41.3329H33V26.8885H24.1111ZM44.1111 41.3329H35.2222V26.8885H44.1111V41.3329ZM43 30.7773H36.3334V32.444H43V30.7773ZM36.3334 33.5551H43V35.2218H36.3334V33.5551ZM43 36.3329H36.3334V37.9996H43V36.3329Z" fill="white"/>
</svg>
