<svg width="35" height="35" viewBox="0 0 35 35" fill="none" xmlns="http://www.w3.org/2000/svg">
<path fill-rule="evenodd" clip-rule="evenodd" d="M7.17128 24.3748L27.2356 10.0322L27.277 10.0902C27.2633 10.0708 27.2496 10.0515 27.2358 10.0322C23.2752 4.49158 15.5729 3.21073 10.0322 7.17136C4.49162 11.132 3.21075 18.8342 7.17128 24.3748Z" fill="#2F80ED"/>
<path fill-rule="evenodd" clip-rule="evenodd" d="M7.17111 24.3749C7.17113 24.3749 7.17115 24.3749 7.17117 24.3749C11.1318 29.9156 18.8341 31.1964 24.3748 27.2358C29.9154 23.2752 31.1962 15.5729 27.2356 10.0322C27.2238 10.0157 27.212 9.99924 27.2001 9.98282L27.2354 10.0322L7.17111 24.3749Z" fill="#F8F8F8"/>
<path d="M10.4407 23.7204C10.4407 24.6705 9.67048 25.4407 8.72036 25.4407C7.77023 25.4407 7 24.6705 7 23.7204C7 22.7702 7.77023 22 8.72036 22C9.67048 22 10.4407 22.7702 10.4407 23.7204Z" fill="#2F80ED"/>
<path d="M27.5259 10.9768C27.5259 11.9269 26.7557 12.6972 25.8056 12.6972C24.8554 12.6972 24.0852 11.9269 24.0852 10.9768C24.0852 10.0267 24.8554 9.25644 25.8056 9.25644C26.7557 9.25644 27.5259 10.0267 27.5259 10.9768Z" fill="#2F80ED"/>
<path fill-rule="evenodd" clip-rule="evenodd" d="M9.74364 22.5362C12.6887 26.6561 18.4161 27.6086 22.5361 24.6635C26.656 21.7184 27.6084 15.991 24.6634 11.8711C21.7183 7.75109 15.9909 6.79866 11.871 9.74374C7.75098 12.6888 6.79855 18.4162 9.74364 22.5362Z" fill="#E9F3FF"/>
</svg>
